<svg xmlns="http://www.w3.org/2000/svg" xmlns:xlink="http://www.w3.org/1999/xlink" version="1.1" id="Layer_1" x="0px" y="0px" viewBox="0 0 1080 1080" style="enable-background:new 0 0 1080 1080;" xml:space="preserve">
	<style type="text/css">
	.st0{fill:url(#SVGID_1_);}
	.st1{fill:url(#SVGID_2_);}
	.st2{fill:url(#SVGID_3_);}
	.st3{fill:url(#SVGID_4_);}
	.st4{fill:#7289DA;}
	.st5{fill:#FFFFFF;}
</style>

	<path d="M905.5,638c-5.8-90.5-29.7-176-68.3-253c-20.6-41-57.1-71.8-100.9-85.4c-60.4-18.8-124.4-29.1-190.8-29.6  c-1.8,0-3.6,0-5.4,0c-1.8,0-3.6,0-5.4,0c-66.4,0.5-130.5,10.9-190.8,29.6c-43.8,13.6-80.4,44.4-100.9,85.4  c-38.6,77-62.6,162.5-68.3,253c-0.9,14.1-1.3,28.3-1.3,42.6c0,0.2,0,0.4,0,0.5c0,33.4,18.2,64.2,47.4,80.3  c22.1,12.2,44.9,23.2,68.4,32.9c37.9,15.6,81.6,4.4,107.2-27.7c2.1-2.6,4.2-5.3,6.3-8c10.1-13,26.4-19.6,42.6-17.2  c31,4.5,62.7,6.8,95,6.8c32.2,0,63.9-2.3,95-6.8c16.3-2.3,32.6,4.2,42.6,17.2c2.1,2.7,4.2,5.3,6.3,8c25.6,32,69.3,43.2,107.2,27.7  c23.5-9.7,46.3-20.7,68.4-32.9c29.2-16.2,47.4-47,47.4-80.3c0-0.2,0-0.4,0-0.5C906.9,666.3,906.4,652.1,905.5,638z" />
	<circle class="st5" cx="405.1" cy="539.9" r="67.5" />
	<circle class="st5" cx="675.1" cy="539.9" r="67.5" />
</svg>