<svg xmlns="http://www.w3.org/2000/svg" xmlns:xlink="http://www.w3.org/1999/xlink" version="1.1" id="Ebene_1" x="0px" y="0px" viewBox="0 0 1080 780" xml:space="preserve">
	<style type="text/css">
	.eye {
		fill: white;
	}
</style>
	<g>
		<path id="blob" d="M532.1,4.6c-96.5,0.8-189.6,15.8-277.3,43.1C191.1,67.5,138,112.2,108.1,171.8     C52.1,283.6,17.2,407.9,8.8,539.4c-1.3,20.5-2,41.1-2,61.9v0.8c0,48.5,26.5,93.3,68.9,116.8c32.1,17.7,65.2,33.7,99.4,47.8     c55.1,22.7,118.6,6.4,155.8-40.2c3.1-3.8,6.1-7.7,9.1-11.6c14.6-18.9,38.3-28.5,62-25.1c45.1,6.5,91.1,9.8,138,9.8     c46.9,0,92.9-3.4,138-9.8c23.7-3.4,47.4,6.1,62,25.1c3,3.9,6,7.8,9.1,11.6c37.1,46.6,100.7,62.8,155.8,40.2     c34.2-14.1,67.3-30,99.4-47.8c42.4-23.5,68.9-68.3,68.9-116.8v-0.8c0-20.8-0.7-41.5-2-61.9c-8.4-131.5-43.2-255.8-99.3-367.6     c-29.9-59.6-83-104.3-146.7-124.1C737.5,20.4,644.4,5.4,547.9,4.6c-2.6,0-5.3,0-7.9,0C537.4,4.6,534.7,4.6,532.1,4.6" />
		<path class="eye" id="lefteye" d="M242.1,396.9c0,54.9,44.5,99.4,99.4,99.4c54.9,0,99.4-44.5,99.4-99.4c0-54.9-44.5-99.4-99.4-99.4     C286.5,297.6,242.1,342.1,242.1,396.9" />
		<path class="eye" id="righteye" d="M638.2,396.8c0,54.2,43.9,98.1,98.1,98.1c54.2,0,98.1-43.9,98.1-98.1c0-54.2-43.9-98.1-98.1-98.1     C682.1,298.8,638.2,342.7,638.2,396.8" />
	</g>
</svg>