<svg width="1242" height="219" viewBox="0 0 1242 219" fill="none" xmlns="http://www.w3.org/2000/svg">
<path fill-rule="evenodd" clip-rule="evenodd" d="M0 0L218 0.00123354C218.008 15.0691 216.474 30.0979 213.421 44.8504C195.819 129.822 129.222 196.719 44.6414 214.402C29.9572 217.468 14.9981 219.009 0 219V0ZM44.6414 131.104V173.3C102.976 150.78 149.226 103.794 170.942 44.8492H44.6414V84.4512H104.146C88.0028 102.41 69.0149 117.564 47.9504 129.3C46.8556 129.91 45.7526 130.511 44.6414 131.104Z" fill="#FF5F00"/>
<path d="M292.245 161.704V128H345.171V100.887H292.245V84.2591H352.409V57.2955H255V161.704H292.245Z" fill="#FF5F00"/>
<path d="M422.397 165C463.864 165 487.99 143.13 487.99 109.575C487.99 75.5708 464.467 54 422.397 54C380.78 54 356.654 76.0202 356.654 109.575C356.654 143.13 380.78 165 422.397 165ZM422.397 134.441C403.247 134.441 393.898 125.004 393.898 109.575C393.898 94.1457 403.247 84.5587 422.397 84.5587C441.547 84.5587 450.444 94.2955 450.444 109.575C450.444 124.704 441.547 134.441 422.397 134.441Z" fill="#FF5F00"/>
<path d="M555.153 165C591.041 165 605.517 149.87 605.517 127.7C605.517 99.9879 575.359 95.3441 554.852 92.3482C539.622 90.1012 536.003 87.7045 536.003 84.4089C536.003 81.413 539.622 79.915 546.257 79.915C556.661 79.915 568.875 85.0081 576.113 92.9474L600.993 73.3239C586.97 60.2915 568.724 54 546.86 54C521.377 54 498.155 65.085 498.155 88.6032C498.155 107.028 511.425 117.814 546.106 122.907C566.462 125.903 567.669 128 567.669 131.895C567.669 136.988 560.431 138.186 553.796 138.186C544.749 138.186 530.726 134.441 526.654 122.308L491.068 129.798C497.251 150.17 517.456 165 555.153 165Z" fill="#FF5F00"/>
<path d="M672.368 165C708.255 165 722.731 149.87 722.731 127.7C722.731 99.9879 692.573 95.3441 672.066 92.3482C656.836 90.1012 653.218 87.7045 653.218 84.4089C653.218 81.413 656.836 79.915 663.471 79.915C673.876 79.915 686.089 85.0081 693.327 92.9474L718.207 73.3239C704.184 60.2915 685.939 54 664.074 54C638.591 54 615.37 65.085 615.37 88.6032C615.37 107.028 628.639 117.814 663.32 122.907C683.677 125.903 684.883 128 684.883 131.895C684.883 136.988 677.645 138.186 671.011 138.186C661.963 138.186 647.94 134.441 643.869 122.308L608.283 129.798C614.465 150.17 634.671 165 672.368 165Z" fill="#FF5F00"/>
<path d="M794.709 165C826.676 165 848.088 152.567 856.683 130.996L821.398 120.66C817.025 131.595 809.637 136.988 794.709 136.988C774.805 136.988 764.099 125.903 764.099 109.275C764.099 92.6478 774.503 82.0121 793.955 82.0121C807.677 82.0121 816.573 86.9555 821.398 97.4413L856.532 86.6559C846.58 66.4332 825.62 54 793.955 54C752.186 54 726.703 76.6194 726.703 109.575C726.703 142.68 752.79 165 794.709 165Z" fill="#FF5F00"/>
<path d="M925.27 165C966.737 165 990.863 143.13 990.863 109.575C990.863 75.5708 967.34 54 925.27 54C883.653 54 859.526 76.0202 859.526 109.575C859.526 143.13 883.653 165 925.27 165ZM925.27 134.441C906.12 134.441 896.771 125.004 896.771 109.575C896.771 94.1457 906.12 84.5587 925.27 84.5587C944.42 84.5587 953.317 94.2955 953.317 109.575C953.317 124.704 944.42 134.441 925.27 134.441Z" fill="#FF5F00"/>
<path d="M1089.24 124.255C1100.55 119.312 1108.09 109.874 1108.09 92.498C1108.09 62.0891 1084.27 57.2955 1058.93 57.2955H999.222V161.704H1036.32V129.049H1052.9L1071.15 161.704H1112.77L1089.24 124.255ZM1057.28 84.2591C1061.65 84.2591 1070.55 83.8097 1070.55 92.7976C1070.55 102.385 1061.5 101.935 1057.28 101.935H1036.32V84.2591H1057.28Z" fill="#FF5F00"/>
<path d="M1177.59 161.704C1215.89 161.704 1237 143.579 1237 110.324C1237 76.4696 1214.98 57.2955 1178.04 57.2955H1119.23V161.704H1177.59ZM1156.93 87.5547H1173.22C1180.45 87.5547 1199.15 87.1053 1199.15 109.275C1199.15 134.291 1176.08 131.445 1170.35 131.445H1156.93V87.5547Z" fill="#FF5F00"/>
</svg>
