<svg width="1242" height="219" viewBox="0 0 1242 219" fill="none" xmlns="http://www.w3.org/2000/svg">
<g clip-path="url(#clip0_6_127)">
<path fill-rule="evenodd" clip-rule="evenodd" d="M218 0.00123354L0 0V219C14.9981 219.009 29.9572 217.468 44.6414 214.402C129.222 196.719 195.819 129.822 213.421 44.8504C216.474 30.0979 218.008 15.0691 218 0.00123354ZM44.6414 173.3V131.104C45.7526 130.511 46.8556 129.91 47.9504 129.3C69.0149 117.564 88.0028 102.41 104.146 84.4512H44.6414V44.8492H170.942C149.226 103.794 102.976 150.78 44.6414 173.3ZM487.99 109.575C487.99 143.13 463.864 165 422.397 165C380.78 165 356.654 143.13 356.654 109.575C356.654 76.0202 380.78 54 422.397 54C464.467 54 487.99 75.5708 487.99 109.575ZM393.898 109.575C393.898 125.004 403.247 134.441 422.397 134.441C441.547 134.441 450.444 124.704 450.444 109.575C450.444 94.2955 441.547 84.5587 422.397 84.5587C403.247 84.5587 393.898 94.1457 393.898 109.575ZM292.245 128V161.704H255V57.2955H352.409V84.2591H292.245V100.887H345.171V128H292.245ZM555.153 165C591.041 165 605.517 149.87 605.517 127.7C605.517 99.9879 575.359 95.3441 554.852 92.3482C539.622 90.1012 536.003 87.7045 536.003 84.4089C536.003 81.413 539.622 79.915 546.257 79.915C556.661 79.915 568.875 85.0081 576.113 92.9474L600.993 73.3239C586.97 60.2915 568.724 54 546.86 54C521.377 54 498.155 65.085 498.155 88.6032C498.155 107.028 511.425 117.814 546.106 122.907C566.462 125.903 567.669 128 567.669 131.895C567.669 136.988 560.431 138.186 553.796 138.186C544.749 138.186 530.726 134.441 526.654 122.308L491.068 129.798C497.251 150.17 517.456 165 555.153 165ZM722.731 127.7C722.731 149.87 708.255 165 672.368 165C634.671 165 614.465 150.17 608.283 129.798L643.869 122.308C647.94 134.441 661.963 138.186 671.011 138.186C677.645 138.186 684.883 136.988 684.883 131.895C684.883 128 683.677 125.903 663.32 122.907C628.639 117.814 615.37 107.028 615.37 88.6032C615.37 65.085 638.591 54 664.074 54C685.939 54 704.184 60.2915 718.207 73.3239L693.327 92.9474C686.089 85.0081 673.875 79.915 663.471 79.915C656.836 79.915 653.218 81.413 653.218 84.4089C653.218 87.7045 656.836 90.1012 672.066 92.3482C692.573 95.3441 722.731 99.9879 722.731 127.7ZM794.709 165C826.676 165 848.088 152.567 856.683 130.996L821.398 120.66C817.025 131.595 809.637 136.988 794.709 136.988C774.805 136.988 764.099 125.903 764.099 109.275C764.099 92.6478 774.503 82.0121 793.955 82.0121C807.677 82.0121 816.573 86.9555 821.398 97.4413L856.532 86.6559C846.58 66.4332 825.62 54 793.955 54C752.186 54 726.703 76.6194 726.703 109.575C726.703 142.68 752.79 165 794.709 165ZM990.863 109.575C990.863 143.13 966.737 165 925.27 165C883.653 165 859.526 143.13 859.526 109.575C859.526 76.0202 883.653 54 925.27 54C967.34 54 990.863 75.5708 990.863 109.575ZM896.771 109.575C896.771 125.004 906.12 134.441 925.27 134.441C944.42 134.441 953.317 124.704 953.317 109.575C953.317 94.2955 944.42 84.5587 925.27 84.5587C906.12 84.5587 896.771 94.1457 896.771 109.575ZM1089.24 124.255C1100.55 119.312 1108.09 109.874 1108.09 92.498C1108.09 62.0891 1084.27 57.2955 1058.93 57.2955H999.222V161.704H1036.32V129.049H1052.9L1071.15 161.704H1112.77L1089.24 124.255ZM1057.58 84.2585L1057.87 84.2574C1062.41 84.2378 1070.55 84.2029 1070.55 92.7976C1070.55 101.99 1062.23 101.955 1057.82 101.937C1057.63 101.936 1057.45 101.935 1057.28 101.935H1036.32V84.2591H1057.28L1057.42 84.259L1057.58 84.2585ZM1237 110.324C1237 143.579 1215.89 161.704 1177.59 161.704H1119.23V57.2955H1178.04C1214.98 57.2955 1237 76.4696 1237 110.324ZM1173.22 87.5546H1156.93V131.445H1170.35C1170.8 131.445 1171.35 131.463 1171.99 131.483C1179.55 131.72 1199.15 132.336 1199.15 109.275C1199.15 87.5252 1181.16 87.5457 1173.64 87.5543L1173.22 87.5546Z" fill="url(#paint0_linear_6_127)"/>
</g>
<defs>
<linearGradient id="paint0_linear_6_127" x1="618.5" y1="0" x2="618.5" y2="219" gradientUnits="userSpaceOnUse">
<stop stop-color="#FF5F00"/>
<stop offset="1" stop-color="#FF3D00"/>
</linearGradient>
<clipPath id="clip0_6_127">
<rect width="1242" height="219" fill="white"/>
</clipPath>
</defs>
</svg>
