<svg width="512" height="512" viewBox="0 0 512 512" fill="none" xmlns="http://www.w3.org/2000/svg">
<g clip-path="url(#clip0_1_2)">
<path d="M0 151.638C0 67.8905 67.8905 0 151.638 0H360.362C444.11 0 512 67.8905 512 151.638V360.362C512 444.11 444.11 512 360.362 512H151.638C67.8905 512 0 444.11 0 360.362V151.638Z" fill="#0185FF"/>
<path fill-rule="evenodd" clip-rule="evenodd" d="M419.395 296.205C424.003 317.631 418.678 339.993 404.912 357.042C391.143 374.092 370.407 384 348.497 384H163.949C142.039 384 121.303 374.092 107.536 357.042C93.7677 339.993 88.4431 317.631 93.0509 296.205L125.547 145.08C127.06 138.042 131.891 132.176 138.508 129.344C145.124 126.511 152.703 127.065 158.837 130.829L256.223 190.583L353.609 130.829C359.743 127.065 367.322 126.511 373.938 129.344C380.555 132.176 385.386 138.042 386.899 145.08L419.395 296.205ZM344.729 261.348C344.729 250.399 335.855 241.523 324.91 241.523H286.727C275.782 241.523 266.91 250.399 266.91 261.348V299.542C266.91 310.491 275.782 319.365 286.727 319.365H324.91C335.855 319.365 344.729 310.491 344.729 299.542V261.348ZM245.536 261.348C245.536 250.399 236.664 241.523 225.719 241.523H187.536C176.591 241.523 167.717 250.399 167.717 261.348V299.542C167.717 310.491 176.591 319.365 187.536 319.365H225.719C236.664 319.365 245.536 310.491 245.536 299.542V261.348Z" fill="white"/>
</g>
<defs>
<clipPath id="clip0_1_2">
<rect width="512" height="512" fill="white"/>
</clipPath>
</defs>
</svg>
