<svg width="512" height="512" viewBox="0 0 512 512" fill="none" xmlns="http://www.w3.org/2000/svg">
<g clip-path="url(#clip0_1_30)">
<path d="M324.91 241.523C335.855 241.523 344.729 250.399 344.729 261.348V299.542C344.729 310.491 335.855 319.365 324.91 319.365H286.727C275.782 319.365 266.91 310.491 266.91 299.542V261.348C266.91 250.399 275.782 241.523 286.727 241.523H324.91Z" fill="#0185FF"/>
<path d="M225.719 241.523C236.664 241.523 245.536 250.399 245.536 261.348V299.542C245.536 310.491 236.664 319.365 225.719 319.365H187.536C176.591 319.365 167.717 310.491 167.717 299.542V261.348C167.717 250.399 176.591 241.523 187.536 241.523H225.719Z" fill="#0185FF"/>
<path fill-rule="evenodd" clip-rule="evenodd" d="M151.638 0C67.8905 0 0 67.8905 0 151.638V360.362C0 444.11 67.8905 512 151.638 512H360.362C444.11 512 512 444.11 512 360.362V151.638C512 67.8905 444.11 0 360.362 0H151.638ZM404.912 357.042C418.678 339.993 424.003 317.631 419.395 296.205L386.899 145.08C385.386 138.042 380.555 132.176 373.938 129.344C367.322 126.511 359.743 127.065 353.609 130.829L256.223 190.583L158.837 130.829C152.703 127.065 145.124 126.511 138.508 129.344C131.891 132.176 127.06 138.042 125.547 145.08L93.0509 296.205C88.4431 317.631 93.7677 339.993 107.536 357.042C121.303 374.092 142.039 384 163.949 384H348.497C370.407 384 391.143 374.092 404.912 357.042Z" fill="#0185FF"/>
</g>
<defs>
<clipPath id="clip0_1_30">
<rect width="512" height="512" fill="white"/>
</clipPath>
</defs>
</svg>
