<svg width="658" height="512" viewBox="0 0 658 512" fill="none" xmlns="http://www.w3.org/2000/svg">
<path fill-rule="evenodd" clip-rule="evenodd" d="M654.761 336.716C663.96 379.493 653.33 424.14 625.846 458.177C598.359 492.218 556.96 512 513.219 512H144.781C101.04 512 59.6412 492.218 32.1568 458.177C4.6698 424.14 -5.96029 379.493 3.23881 336.716L68.114 34.9913C71.1347 20.9403 80.7803 9.2276 93.9899 3.57439C107.199 -2.08151 122.33 -0.975653 134.576 6.53954L329 125.838L523.424 6.53954C535.67 -0.975653 550.801 -2.08151 564.01 3.57439C577.22 9.2276 586.865 20.9403 589.886 34.9913L654.761 336.716ZM505.695 267.123C505.695 245.263 487.98 227.542 466.128 227.542H389.9C368.048 227.542 350.335 245.263 350.335 267.123V343.378C350.335 365.237 368.048 382.956 389.9 382.956H466.128C487.98 382.956 505.695 365.237 505.695 343.378V267.123ZM307.665 267.123C307.665 245.263 289.952 227.542 268.1 227.542H191.871C170.02 227.542 152.305 245.263 152.305 267.123V343.378C152.305 365.237 170.02 382.956 191.871 382.956H268.1C289.952 382.956 307.665 365.237 307.665 343.378V267.123Z" fill="#0185FF"/>
</svg>
